<?xml version="1.0" standalone="no"?>
<!DOCTYPE svg PUBLIC "-//W3C//DTD SVG 20010904//EN"
 "http://www.w3.org/TR/2001/REC-SVG-20010904/DTD/svg10.dtd">
<svg version="1.0" xmlns="http://www.w3.org/2000/svg"
 width="1950.000000pt" height="1950.000000pt" viewBox="0 0 1950.000000 1950.000000"
 preserveAspectRatio="xMidYMid meet">
<metadata>
Created by potrace 1.14, written by Peter Selinger 2001-2017
</metadata>
<g transform="translate(0.000000,1950.000000) scale(0.100000,-0.100000)"
fill="#000000" stroke="none">
<path d="M9320 17244 c-25 -2 -103 -9 -175 -14 -71 -6 -200 -20 -285 -31 -85
-11 -180 -22 -210 -25 -65 -5 -178 -25 -345 -60 -66 -14 -145 -30 -175 -36
-50 -9 -144 -32 -420 -104 -52 -13 -142 -40 -200 -60 -58 -20 -114 -38 -126
-40 -11 -2 -63 -20 -115 -40 -52 -19 -121 -44 -154 -55 -33 -10 -69 -23 -80
-28 -58 -29 -154 -69 -180 -75 -16 -4 -59 -22 -95 -40 -36 -18 -77 -37 -90
-41 -58 -17 -530 -260 -688 -354 -29 -17 -56 -31 -59 -31 -3 0 -20 -10 -37
-23 -17 -13 -71 -47 -121 -77 -49 -29 -92 -56 -95 -60 -3 -3 -50 -35 -105 -70
-55 -35 -123 -82 -152 -104 -28 -23 -87 -66 -130 -96 -92 -65 -159 -116 -228
-175 -27 -23 -120 -101 -205 -171 -191 -159 -388 -356 -805 -804 -41 -45 -172
-209 -259 -325 -36 -49 -83 -110 -102 -135 -51 -65 -111 -151 -184 -265 -35
-55 -66 -102 -70 -105 -9 -7 -130 -209 -130 -217 0 -3 -11 -20 -23 -37 -13
-17 -45 -71 -72 -121 -26 -49 -51 -95 -56 -100 -40 -51 -349 -715 -375 -805
-4 -14 -17 -47 -29 -75 -29 -67 -44 -106 -50 -130 -2 -11 -22 -69 -43 -130
-56 -158 -123 -367 -126 -396 -2 -13 -20 -81 -40 -150 -20 -69 -41 -150 -46
-180 -5 -30 -25 -124 -44 -209 -20 -85 -36 -168 -36 -185 0 -16 -7 -65 -15
-109 -24 -126 -64 -417 -64 -461 1 -22 -5 -103 -12 -180 -16 -158 -20 -1026
-6 -1109 l9 -49 2332 5 2333 4 6 -645 c4 -354 7 -939 7 -1299 l0 -655 347 6
c190 4 528 7 750 7 l403 0 0 1295 0 1295 475 0 475 0 0 675 0 675 -480 0 -480
0 0 1504 c0 1073 -3 1507 -11 1512 -6 3 -345 3 -755 -1 l-743 -8 6 -1497 6
-1497 -354 -6 c-195 -4 -958 -7 -1696 -7 l-1343 0 0 25 c0 13 16 111 36 217
20 106 38 210 40 230 2 21 20 100 40 175 20 76 40 158 45 183 10 60 115 398
152 490 6 14 11 32 13 41 2 8 17 49 34 90 17 41 40 97 50 124 32 88 136 321
192 430 12 22 41 78 65 125 24 47 52 99 62 115 10 17 44 75 75 130 64 112 223
367 235 375 4 3 38 50 76 105 79 113 193 265 211 280 6 6 57 64 112 130 139
168 329 367 517 543 191 179 318 284 540 451 74 56 353 243 410 276 28 15 52
31 55 35 6 9 143 87 270 153 52 28 97 54 100 58 3 4 30 18 60 31 30 14 91 42
135 62 44 21 107 50 140 66 79 37 356 149 381 155 10 2 75 24 144 48 141 51
410 132 485 146 28 6 127 28 222 50 94 23 207 45 250 50 43 5 139 18 213 30
460 69 947 77 1465 26 226 -23 307 -34 450 -61 72 -14 148 -28 170 -30 22 -3
110 -22 195 -44 85 -21 169 -41 185 -45 17 -3 80 -22 140 -42 61 -19 120 -37
132 -39 25 -5 215 -72 313 -111 36 -14 99 -38 140 -53 41 -15 103 -42 138 -59
34 -17 66 -31 71 -31 9 0 132 -58 226 -106 28 -14 86 -44 130 -66 44 -23 82
-44 85 -47 3 -4 43 -28 90 -53 122 -66 164 -89 170 -97 6 -8 88 -61 94 -61 9
0 180 -113 191 -126 6 -6 33 -26 60 -45 128 -85 299 -216 390 -298 11 -10 74
-66 140 -123 66 -58 160 -143 209 -190 l90 -84 443 439 c244 242 443 444 443
448 0 5 -24 30 -52 56 -29 26 -76 71 -103 98 -164 163 -380 347 -592 505 -76
57 -143 109 -148 115 -6 7 -82 60 -170 118 -88 58 -171 114 -185 125 -29 22
-376 232 -384 232 -3 0 -29 14 -58 32 -29 17 -89 50 -133 73 -44 22 -93 49
-110 58 -49 28 -417 197 -428 197 -4 0 -40 16 -82 36 -42 20 -81 37 -88 38
-23 4 -92 29 -102 36 -10 8 -230 86 -330 118 -27 8 -102 32 -165 53 -64 21
-130 40 -147 43 -17 4 -86 22 -152 41 -67 19 -147 39 -179 44 -31 6 -127 26
-212 46 -85 19 -168 35 -185 35 -16 0 -65 7 -109 15 -125 24 -416 63 -476 64
-30 0 -95 5 -145 11 -86 11 -920 22 -1015 14z"/>
<path d="M14448 13515 c-2 -3 -960 -6 -2129 -7 -1168 -1 -2256 -4 -2418 -6
l-294 -3 6 -2662 c4 -1464 7 -3019 7 -3454 l0 -793 731 0 731 0 -3 1293 -3
1292 502 3 502 2 40 53 c22 28 249 331 503 672 l464 620 -1009 3 -1008 2 0
825 0 825 1193 0 1193 0 445 587 c569 752 562 743 557 748 -3 3 -7 3 -10 0z"/>
<path d="M13945 10532 l-650 -3 -45 -62 c-70 -96 -931 -1250 -949 -1271 -16
-18 19 -19 1827 -12 l1842 7 0 -45 c0 -71 -36 -333 -74 -541 -263 -1428 -1025
-2727 -2151 -3665 -932 -777 -2088 -1270 -3295 -1404 -243 -27 -411 -36 -695
-36 -495 0 -911 44 -1366 145 -1119 249 -2139 797 -2979 1602 l-86 82 -442
-442 -443 -443 129 -122 c1195 -1125 2627 -1807 4232 -2016 313 -41 497 -51
960 -51 483 1 591 7 1001 60 1471 192 2876 844 4009 1861 152 136 464 450 594
597 1028 1164 1671 2609 1840 4137 53 475 57 1203 9 1583 l-6 47 -1306 -2
c-718 -2 -1598 -4 -1956 -6z"/>
</g>
</svg>
